# xmcd
# 
# Track frame offsets:
#     150
#     7197
#     31179
#     48401
#     63294
#     88094
#     111060
#     130357
#     148702
#     164442
#     187454
#     212219
#     233371
#     254094
# 
# Disc length: 3461
# 
# Revision: 15
# Processed by: cddbd v1.5.2PL0 Copyright (c) Steve Scherf et al.
# Submitted via: fre:ac v1.0.31
# 
DISCID=cf0d830e
DTITLE=西野カナ - to LOVE
DYEAR=2010
DGENRE=JPop
TTITLE0=*Prologue* ～What a nice～
TTITLE1=Best Friend
TTITLE2=Summer Girl feat.MINMI
TTITLE3=Hey Boy
TTITLE4=もっと…
TTITLE5=love and smile
TTITLE6=このままで
TTITLE7=MAYBE
TTITLE8=WRONG
TTITLE9=Come On Yes Yes Oh Yeah!!
TTITLE10=Dear…
TTITLE11=会いたくて 会いたくて
TTITLE12=You are the one
TTITLE13=*Epilogue*～to LOVE～
EXTD=YEAR: 2010
EXTT0=
EXTT1=
EXTT2=
EXTT3=
EXTT4=
EXTT5=
EXTT6=
EXTT7=
EXTT8=
EXTT9=
EXTT10=
EXTT11=
EXTT12=
EXTT13=
PLAYORDER=
